<mxfile host="app.diagrams.net" agent="Mozilla/5.0 (Macintosh; Intel Mac OS X 10_15_7) AppleWebKit/537.36 (KHTML, like Gecko) Chrome/135.0.0.0 Safari/537.36" version="26.2.13">
  <diagram name="PÃ¡gina-1" id="xApXqVmCmgWH53CA5Bsz">
    <mxGraphModel dx="1115" dy="639" grid="1" gridSize="10" guides="1" tooltips="1" connect="1" arrows="1" fold="1" page="1" pageScale="1" pageWidth="827" pageHeight="1169" math="0" shadow="0">
      <root>
        <mxCell id="0" />
        <mxCell id="1" parent="0" />
        <mxCell id="Y6nRmO8s2TvB1WiHXS-o-1" value="&lt;span style=&quot;font-weight: normal;&quot;&gt;&amp;lt;&amp;lt;interface&amp;gt;&amp;gt;&lt;/span&gt;&lt;div&gt;ReprodutorMusical&lt;/div&gt;" style="swimlane;whiteSpace=wrap;html=1;startSize=60;" vertex="1" parent="1">
          <mxGeometry x="210" y="150" width="230" height="140" as="geometry" />
        </mxCell>
        <mxCell id="Y6nRmO8s2TvB1WiHXS-o-2" value="+ tocar(): void" style="text;html=1;align=center;verticalAlign=middle;resizable=0;points=[];autosize=1;strokeColor=none;fillColor=none;" vertex="1" parent="Y6nRmO8s2TvB1WiHXS-o-1">
          <mxGeometry x="50" y="60" width="100" height="30" as="geometry" />
        </mxCell>
        <mxCell id="Y6nRmO8s2TvB1WiHXS-o-5" value="+ pausar(): void" style="text;html=1;align=center;verticalAlign=middle;resizable=0;points=[];autosize=1;strokeColor=none;fillColor=none;" vertex="1" parent="Y6nRmO8s2TvB1WiHXS-o-1">
          <mxGeometry x="50" y="86" width="110" height="30" as="geometry" />
        </mxCell>
        <mxCell id="Y6nRmO8s2TvB1WiHXS-o-4" value="+ selecionarMusica(String musica): void" style="text;html=1;align=center;verticalAlign=middle;resizable=0;points=[];autosize=1;strokeColor=none;fillColor=none;" vertex="1" parent="Y6nRmO8s2TvB1WiHXS-o-1">
          <mxGeometry x="-10" y="110" width="240" height="30" as="geometry" />
        </mxCell>
        <mxCell id="Y6nRmO8s2TvB1WiHXS-o-6" value="&lt;span style=&quot;font-weight: normal;&quot;&gt;&amp;lt;&amp;lt;interface&amp;gt;&amp;gt;&lt;/span&gt;&lt;div&gt;AparelhoTelefonico&lt;/div&gt;" style="swimlane;whiteSpace=wrap;html=1;startSize=60;" vertex="1" parent="1">
          <mxGeometry x="530" y="150" width="230" height="140" as="geometry" />
        </mxCell>
        <mxCell id="Y6nRmO8s2TvB1WiHXS-o-7" value="+ ligar(String numero): void" style="text;html=1;align=center;verticalAlign=middle;resizable=0;points=[];autosize=1;strokeColor=none;fillColor=none;" vertex="1" parent="Y6nRmO8s2TvB1WiHXS-o-6">
          <mxGeometry x="15" y="60" width="170" height="30" as="geometry" />
        </mxCell>
        <mxCell id="Y6nRmO8s2TvB1WiHXS-o-8" value="+ atender(): void" style="text;html=1;align=center;verticalAlign=middle;resizable=0;points=[];autosize=1;strokeColor=none;fillColor=none;" vertex="1" parent="Y6nRmO8s2TvB1WiHXS-o-6">
          <mxGeometry x="50" y="86" width="110" height="30" as="geometry" />
        </mxCell>
        <mxCell id="Y6nRmO8s2TvB1WiHXS-o-9" value="+ iniciarCorreioVoz(): void" style="text;html=1;align=center;verticalAlign=middle;resizable=0;points=[];autosize=1;strokeColor=none;fillColor=none;" vertex="1" parent="Y6nRmO8s2TvB1WiHXS-o-6">
          <mxGeometry x="30" y="110" width="160" height="30" as="geometry" />
        </mxCell>
        <mxCell id="Y6nRmO8s2TvB1WiHXS-o-10" value="&lt;span style=&quot;font-weight: normal;&quot;&gt;&amp;lt;&amp;lt;interface&amp;gt;&amp;gt;&lt;/span&gt;&lt;div&gt;NavegadorInternet&lt;/div&gt;" style="swimlane;whiteSpace=wrap;html=1;startSize=60;" vertex="1" parent="1">
          <mxGeometry x="850" y="150" width="230" height="140" as="geometry" />
        </mxCell>
        <mxCell id="Y6nRmO8s2TvB1WiHXS-o-11" value="+ exibirPagina(String url): void" style="text;html=1;align=center;verticalAlign=middle;resizable=0;points=[];autosize=1;strokeColor=none;fillColor=none;" vertex="1" parent="Y6nRmO8s2TvB1WiHXS-o-10">
          <mxGeometry x="10" y="60" width="180" height="30" as="geometry" />
        </mxCell>
        <mxCell id="Y6nRmO8s2TvB1WiHXS-o-12" value="+ adicionarNovaAba(): void" style="text;html=1;align=center;verticalAlign=middle;resizable=0;points=[];autosize=1;strokeColor=none;fillColor=none;" vertex="1" parent="Y6nRmO8s2TvB1WiHXS-o-10">
          <mxGeometry x="20" y="86" width="170" height="30" as="geometry" />
        </mxCell>
        <mxCell id="Y6nRmO8s2TvB1WiHXS-o-13" value="+ atualizarPagina(): void" style="text;html=1;align=center;verticalAlign=middle;resizable=0;points=[];autosize=1;strokeColor=none;fillColor=none;" vertex="1" parent="Y6nRmO8s2TvB1WiHXS-o-10">
          <mxGeometry x="35" y="110" width="150" height="30" as="geometry" />
        </mxCell>
        <mxCell id="Y6nRmO8s2TvB1WiHXS-o-15" style="edgeStyle=orthogonalEdgeStyle;rounded=0;orthogonalLoop=1;jettySize=auto;html=1;exitX=0.5;exitY=0;exitDx=0;exitDy=0;" edge="1" parent="1" source="Y6nRmO8s2TvB1WiHXS-o-14" target="Y6nRmO8s2TvB1WiHXS-o-4">
          <mxGeometry relative="1" as="geometry" />
        </mxCell>
        <mxCell id="Y6nRmO8s2TvB1WiHXS-o-16" style="edgeStyle=orthogonalEdgeStyle;rounded=0;orthogonalLoop=1;jettySize=auto;html=1;exitX=0.5;exitY=0;exitDx=0;exitDy=0;" edge="1" parent="1" source="Y6nRmO8s2TvB1WiHXS-o-14" target="Y6nRmO8s2TvB1WiHXS-o-9">
          <mxGeometry relative="1" as="geometry" />
        </mxCell>
        <mxCell id="Y6nRmO8s2TvB1WiHXS-o-17" style="edgeStyle=orthogonalEdgeStyle;rounded=0;orthogonalLoop=1;jettySize=auto;html=1;exitX=0.5;exitY=0;exitDx=0;exitDy=0;" edge="1" parent="1" source="Y6nRmO8s2TvB1WiHXS-o-14" target="Y6nRmO8s2TvB1WiHXS-o-13">
          <mxGeometry relative="1" as="geometry" />
        </mxCell>
        <mxCell id="Y6nRmO8s2TvB1WiHXS-o-14" value="Iphone" style="swimlane;whiteSpace=wrap;html=1;" vertex="1" parent="1">
          <mxGeometry x="575" y="450" width="130" height="50" as="geometry" />
        </mxCell>
      </root>
    </mxGraphModel>
  </diagram>
</mxfile>
